<svg xmlns="http://www.w3.org/2000/svg" width="512" height="512" viewBox="0 0 511.784 511.784"><path d="M459.67 196.968l-176-192c-6.048-6.624-17.504-6.624-23.552 0l-176 192c-4.32 4.672-5.408 11.456-2.88 17.248a16.013 16.013 0 0014.656 9.568h80v87.36c0 36.96-11.2 72.64-32.352 103.2-21.12 30.464-50.624 53.44-85.28 66.464-7.264 2.72-11.488 10.24-10.112 17.856 1.376 7.616 8 13.12 15.744 13.12h90.88c117.536 0 213.12-95.616 213.12-213.12v-74.88h80a16.013 16.013 0 0014.656-9.568c2.528-5.792 1.44-12.576-2.88-17.248zm-107.776-5.184c-8.832 0-16 7.168-16 16v90.88c0 99.872-81.248 181.12-181.12 181.12h-29.632a213.28 213.28 0 0044.704-47.2c24.896-35.968 38.048-77.952 38.048-121.44v-103.36c0-8.832-7.168-16-16-16h-59.616l139.616-152.32 139.616 152.32h-59.616z" fill="#ef5b06" data-original="#000000" xmlns="http://www.w3.org/2000/svg"/></svg>